G04 EAGLE Gerber RS-274X export*
G75*
%MOMM*%
%FSLAX34Y34*%
%LPD*%
%INBoard Outline*%
%IPPOS*%
%AMOC8*
5,1,8,0,0,1.08239X$1,22.5*%
G01*
%ADD10C,0.000000*%
%ADD11C,0.254000*%


D10*
X0Y0D02*
X1500000Y0D01*
X1500000Y880000D01*
X0Y880000D01*
X0Y0D01*
X1371500Y152000D02*
X1371502Y152161D01*
X1371508Y152321D01*
X1371518Y152482D01*
X1371532Y152642D01*
X1371550Y152802D01*
X1371571Y152961D01*
X1371597Y153120D01*
X1371627Y153278D01*
X1371660Y153435D01*
X1371698Y153592D01*
X1371739Y153747D01*
X1371784Y153901D01*
X1371833Y154054D01*
X1371886Y154206D01*
X1371942Y154357D01*
X1372003Y154506D01*
X1372066Y154654D01*
X1372134Y154800D01*
X1372205Y154944D01*
X1372279Y155086D01*
X1372357Y155227D01*
X1372439Y155365D01*
X1372524Y155502D01*
X1372612Y155636D01*
X1372704Y155768D01*
X1372799Y155898D01*
X1372897Y156026D01*
X1372998Y156151D01*
X1373102Y156273D01*
X1373209Y156393D01*
X1373319Y156510D01*
X1373432Y156625D01*
X1373548Y156736D01*
X1373667Y156845D01*
X1373788Y156950D01*
X1373912Y157053D01*
X1374038Y157153D01*
X1374166Y157249D01*
X1374297Y157342D01*
X1374431Y157432D01*
X1374566Y157519D01*
X1374704Y157602D01*
X1374843Y157682D01*
X1374985Y157758D01*
X1375128Y157831D01*
X1375273Y157900D01*
X1375420Y157966D01*
X1375568Y158028D01*
X1375718Y158086D01*
X1375869Y158141D01*
X1376022Y158192D01*
X1376176Y158239D01*
X1376331Y158282D01*
X1376487Y158321D01*
X1376643Y158357D01*
X1376801Y158388D01*
X1376959Y158416D01*
X1377118Y158440D01*
X1377278Y158460D01*
X1377438Y158476D01*
X1377598Y158488D01*
X1377759Y158496D01*
X1377920Y158500D01*
X1378080Y158500D01*
X1378241Y158496D01*
X1378402Y158488D01*
X1378562Y158476D01*
X1378722Y158460D01*
X1378882Y158440D01*
X1379041Y158416D01*
X1379199Y158388D01*
X1379357Y158357D01*
X1379513Y158321D01*
X1379669Y158282D01*
X1379824Y158239D01*
X1379978Y158192D01*
X1380131Y158141D01*
X1380282Y158086D01*
X1380432Y158028D01*
X1380580Y157966D01*
X1380727Y157900D01*
X1380872Y157831D01*
X1381015Y157758D01*
X1381157Y157682D01*
X1381296Y157602D01*
X1381434Y157519D01*
X1381569Y157432D01*
X1381703Y157342D01*
X1381834Y157249D01*
X1381962Y157153D01*
X1382088Y157053D01*
X1382212Y156950D01*
X1382333Y156845D01*
X1382452Y156736D01*
X1382568Y156625D01*
X1382681Y156510D01*
X1382791Y156393D01*
X1382898Y156273D01*
X1383002Y156151D01*
X1383103Y156026D01*
X1383201Y155898D01*
X1383296Y155768D01*
X1383388Y155636D01*
X1383476Y155502D01*
X1383561Y155365D01*
X1383643Y155227D01*
X1383721Y155086D01*
X1383795Y154944D01*
X1383866Y154800D01*
X1383934Y154654D01*
X1383997Y154506D01*
X1384058Y154357D01*
X1384114Y154206D01*
X1384167Y154054D01*
X1384216Y153901D01*
X1384261Y153747D01*
X1384302Y153592D01*
X1384340Y153435D01*
X1384373Y153278D01*
X1384403Y153120D01*
X1384429Y152961D01*
X1384450Y152802D01*
X1384468Y152642D01*
X1384482Y152482D01*
X1384492Y152321D01*
X1384498Y152161D01*
X1384500Y152000D01*
X1384498Y151839D01*
X1384492Y151679D01*
X1384482Y151518D01*
X1384468Y151358D01*
X1384450Y151198D01*
X1384429Y151039D01*
X1384403Y150880D01*
X1384373Y150722D01*
X1384340Y150565D01*
X1384302Y150408D01*
X1384261Y150253D01*
X1384216Y150099D01*
X1384167Y149946D01*
X1384114Y149794D01*
X1384058Y149643D01*
X1383997Y149494D01*
X1383934Y149346D01*
X1383866Y149200D01*
X1383795Y149056D01*
X1383721Y148914D01*
X1383643Y148773D01*
X1383561Y148635D01*
X1383476Y148498D01*
X1383388Y148364D01*
X1383296Y148232D01*
X1383201Y148102D01*
X1383103Y147974D01*
X1383002Y147849D01*
X1382898Y147727D01*
X1382791Y147607D01*
X1382681Y147490D01*
X1382568Y147375D01*
X1382452Y147264D01*
X1382333Y147155D01*
X1382212Y147050D01*
X1382088Y146947D01*
X1381962Y146847D01*
X1381834Y146751D01*
X1381703Y146658D01*
X1381569Y146568D01*
X1381434Y146481D01*
X1381296Y146398D01*
X1381157Y146318D01*
X1381015Y146242D01*
X1380872Y146169D01*
X1380727Y146100D01*
X1380580Y146034D01*
X1380432Y145972D01*
X1380282Y145914D01*
X1380131Y145859D01*
X1379978Y145808D01*
X1379824Y145761D01*
X1379669Y145718D01*
X1379513Y145679D01*
X1379357Y145643D01*
X1379199Y145612D01*
X1379041Y145584D01*
X1378882Y145560D01*
X1378722Y145540D01*
X1378562Y145524D01*
X1378402Y145512D01*
X1378241Y145504D01*
X1378080Y145500D01*
X1377920Y145500D01*
X1377759Y145504D01*
X1377598Y145512D01*
X1377438Y145524D01*
X1377278Y145540D01*
X1377118Y145560D01*
X1376959Y145584D01*
X1376801Y145612D01*
X1376643Y145643D01*
X1376487Y145679D01*
X1376331Y145718D01*
X1376176Y145761D01*
X1376022Y145808D01*
X1375869Y145859D01*
X1375718Y145914D01*
X1375568Y145972D01*
X1375420Y146034D01*
X1375273Y146100D01*
X1375128Y146169D01*
X1374985Y146242D01*
X1374843Y146318D01*
X1374704Y146398D01*
X1374566Y146481D01*
X1374431Y146568D01*
X1374297Y146658D01*
X1374166Y146751D01*
X1374038Y146847D01*
X1373912Y146947D01*
X1373788Y147050D01*
X1373667Y147155D01*
X1373548Y147264D01*
X1373432Y147375D01*
X1373319Y147490D01*
X1373209Y147607D01*
X1373102Y147727D01*
X1372998Y147849D01*
X1372897Y147974D01*
X1372799Y148102D01*
X1372704Y148232D01*
X1372612Y148364D01*
X1372524Y148498D01*
X1372439Y148635D01*
X1372357Y148773D01*
X1372279Y148914D01*
X1372205Y149056D01*
X1372134Y149200D01*
X1372066Y149346D01*
X1372003Y149494D01*
X1371942Y149643D01*
X1371886Y149794D01*
X1371833Y149946D01*
X1371784Y150099D01*
X1371739Y150253D01*
X1371698Y150408D01*
X1371660Y150565D01*
X1371627Y150722D01*
X1371597Y150880D01*
X1371571Y151039D01*
X1371550Y151198D01*
X1371532Y151358D01*
X1371518Y151518D01*
X1371508Y151679D01*
X1371502Y151839D01*
X1371500Y152000D01*
X1373000Y227000D02*
X1373002Y227141D01*
X1373008Y227282D01*
X1373018Y227422D01*
X1373032Y227562D01*
X1373050Y227702D01*
X1373071Y227841D01*
X1373097Y227980D01*
X1373126Y228118D01*
X1373160Y228254D01*
X1373197Y228390D01*
X1373238Y228525D01*
X1373283Y228659D01*
X1373332Y228791D01*
X1373384Y228922D01*
X1373440Y229051D01*
X1373500Y229178D01*
X1373563Y229304D01*
X1373629Y229428D01*
X1373700Y229551D01*
X1373773Y229671D01*
X1373850Y229789D01*
X1373930Y229905D01*
X1374014Y230018D01*
X1374100Y230129D01*
X1374190Y230238D01*
X1374283Y230344D01*
X1374378Y230447D01*
X1374477Y230548D01*
X1374578Y230646D01*
X1374682Y230741D01*
X1374789Y230833D01*
X1374898Y230922D01*
X1375010Y231007D01*
X1375124Y231090D01*
X1375240Y231170D01*
X1375359Y231246D01*
X1375480Y231318D01*
X1375602Y231388D01*
X1375727Y231453D01*
X1375853Y231516D01*
X1375981Y231574D01*
X1376111Y231629D01*
X1376242Y231681D01*
X1376375Y231728D01*
X1376509Y231772D01*
X1376644Y231813D01*
X1376780Y231849D01*
X1376917Y231881D01*
X1377055Y231910D01*
X1377193Y231935D01*
X1377333Y231955D01*
X1377473Y231972D01*
X1377613Y231985D01*
X1377754Y231994D01*
X1377894Y231999D01*
X1378035Y232000D01*
X1378176Y231997D01*
X1378317Y231990D01*
X1378457Y231979D01*
X1378597Y231964D01*
X1378737Y231945D01*
X1378876Y231923D01*
X1379014Y231896D01*
X1379152Y231866D01*
X1379288Y231831D01*
X1379424Y231793D01*
X1379558Y231751D01*
X1379692Y231705D01*
X1379824Y231656D01*
X1379954Y231602D01*
X1380083Y231545D01*
X1380210Y231485D01*
X1380336Y231421D01*
X1380459Y231353D01*
X1380581Y231282D01*
X1380701Y231208D01*
X1380818Y231130D01*
X1380933Y231049D01*
X1381046Y230965D01*
X1381157Y230878D01*
X1381265Y230787D01*
X1381370Y230694D01*
X1381473Y230597D01*
X1381573Y230498D01*
X1381670Y230396D01*
X1381764Y230291D01*
X1381855Y230184D01*
X1381943Y230074D01*
X1382028Y229962D01*
X1382110Y229847D01*
X1382189Y229730D01*
X1382264Y229611D01*
X1382336Y229490D01*
X1382404Y229367D01*
X1382469Y229242D01*
X1382531Y229115D01*
X1382588Y228986D01*
X1382643Y228856D01*
X1382693Y228725D01*
X1382740Y228592D01*
X1382783Y228458D01*
X1382822Y228322D01*
X1382857Y228186D01*
X1382889Y228049D01*
X1382916Y227911D01*
X1382940Y227772D01*
X1382960Y227632D01*
X1382976Y227492D01*
X1382988Y227352D01*
X1382996Y227211D01*
X1383000Y227070D01*
X1383000Y226930D01*
X1382996Y226789D01*
X1382988Y226648D01*
X1382976Y226508D01*
X1382960Y226368D01*
X1382940Y226228D01*
X1382916Y226089D01*
X1382889Y225951D01*
X1382857Y225814D01*
X1382822Y225678D01*
X1382783Y225542D01*
X1382740Y225408D01*
X1382693Y225275D01*
X1382643Y225144D01*
X1382588Y225014D01*
X1382531Y224885D01*
X1382469Y224758D01*
X1382404Y224633D01*
X1382336Y224510D01*
X1382264Y224389D01*
X1382189Y224270D01*
X1382110Y224153D01*
X1382028Y224038D01*
X1381943Y223926D01*
X1381855Y223816D01*
X1381764Y223709D01*
X1381670Y223604D01*
X1381573Y223502D01*
X1381473Y223403D01*
X1381370Y223306D01*
X1381265Y223213D01*
X1381157Y223122D01*
X1381046Y223035D01*
X1380933Y222951D01*
X1380818Y222870D01*
X1380701Y222792D01*
X1380581Y222718D01*
X1380459Y222647D01*
X1380336Y222579D01*
X1380210Y222515D01*
X1380083Y222455D01*
X1379954Y222398D01*
X1379824Y222344D01*
X1379692Y222295D01*
X1379558Y222249D01*
X1379424Y222207D01*
X1379288Y222169D01*
X1379152Y222134D01*
X1379014Y222104D01*
X1378876Y222077D01*
X1378737Y222055D01*
X1378597Y222036D01*
X1378457Y222021D01*
X1378317Y222010D01*
X1378176Y222003D01*
X1378035Y222000D01*
X1377894Y222001D01*
X1377754Y222006D01*
X1377613Y222015D01*
X1377473Y222028D01*
X1377333Y222045D01*
X1377193Y222065D01*
X1377055Y222090D01*
X1376917Y222119D01*
X1376780Y222151D01*
X1376644Y222187D01*
X1376509Y222228D01*
X1376375Y222272D01*
X1376242Y222319D01*
X1376111Y222371D01*
X1375981Y222426D01*
X1375853Y222484D01*
X1375727Y222547D01*
X1375602Y222612D01*
X1375480Y222682D01*
X1375359Y222754D01*
X1375240Y222830D01*
X1375124Y222910D01*
X1375010Y222993D01*
X1374898Y223078D01*
X1374789Y223167D01*
X1374682Y223259D01*
X1374578Y223354D01*
X1374477Y223452D01*
X1374378Y223553D01*
X1374283Y223656D01*
X1374190Y223762D01*
X1374100Y223871D01*
X1374014Y223982D01*
X1373930Y224095D01*
X1373850Y224211D01*
X1373773Y224329D01*
X1373700Y224449D01*
X1373629Y224572D01*
X1373563Y224696D01*
X1373500Y224822D01*
X1373440Y224949D01*
X1373384Y225078D01*
X1373332Y225209D01*
X1373283Y225341D01*
X1373238Y225475D01*
X1373197Y225610D01*
X1373160Y225746D01*
X1373126Y225882D01*
X1373097Y226020D01*
X1373071Y226159D01*
X1373050Y226298D01*
X1373032Y226438D01*
X1373018Y226578D01*
X1373008Y226718D01*
X1373002Y226859D01*
X1373000Y227000D01*
X406450Y805700D02*
X406450Y816700D01*
X406448Y816811D01*
X406442Y816922D01*
X406433Y817032D01*
X406420Y817143D01*
X406403Y817252D01*
X406382Y817361D01*
X406358Y817469D01*
X406329Y817577D01*
X406298Y817683D01*
X406262Y817788D01*
X406223Y817892D01*
X406181Y817995D01*
X406135Y818096D01*
X406086Y818195D01*
X406033Y818293D01*
X405977Y818389D01*
X405918Y818482D01*
X405855Y818574D01*
X405790Y818664D01*
X405721Y818751D01*
X405650Y818836D01*
X405575Y818918D01*
X405498Y818998D01*
X405418Y819075D01*
X405336Y819150D01*
X405251Y819221D01*
X405164Y819290D01*
X405074Y819355D01*
X404982Y819418D01*
X404889Y819477D01*
X404793Y819533D01*
X404695Y819586D01*
X404596Y819635D01*
X404495Y819681D01*
X404392Y819723D01*
X404288Y819762D01*
X404183Y819798D01*
X404077Y819829D01*
X403969Y819858D01*
X403861Y819882D01*
X403752Y819903D01*
X403643Y819920D01*
X403532Y819933D01*
X403422Y819942D01*
X403311Y819948D01*
X403200Y819950D01*
X403089Y819948D01*
X402978Y819942D01*
X402868Y819933D01*
X402757Y819920D01*
X402648Y819903D01*
X402539Y819882D01*
X402431Y819858D01*
X402323Y819829D01*
X402217Y819798D01*
X402112Y819762D01*
X402008Y819723D01*
X401905Y819681D01*
X401804Y819635D01*
X401705Y819586D01*
X401607Y819533D01*
X401511Y819477D01*
X401418Y819418D01*
X401326Y819355D01*
X401236Y819290D01*
X401149Y819221D01*
X401064Y819150D01*
X400982Y819075D01*
X400902Y818998D01*
X400825Y818918D01*
X400750Y818836D01*
X400679Y818751D01*
X400610Y818664D01*
X400545Y818574D01*
X400482Y818482D01*
X400423Y818389D01*
X400367Y818293D01*
X400314Y818195D01*
X400265Y818096D01*
X400219Y817995D01*
X400177Y817892D01*
X400138Y817788D01*
X400102Y817683D01*
X400071Y817577D01*
X400042Y817469D01*
X400018Y817361D01*
X399997Y817252D01*
X399980Y817143D01*
X399967Y817032D01*
X399958Y816922D01*
X399952Y816811D01*
X399950Y816700D01*
X399950Y805700D01*
X399952Y805589D01*
X399958Y805478D01*
X399967Y805368D01*
X399980Y805257D01*
X399997Y805148D01*
X400018Y805039D01*
X400042Y804931D01*
X400071Y804823D01*
X400102Y804717D01*
X400138Y804612D01*
X400177Y804508D01*
X400219Y804405D01*
X400265Y804304D01*
X400314Y804205D01*
X400367Y804107D01*
X400423Y804011D01*
X400482Y803918D01*
X400545Y803826D01*
X400610Y803736D01*
X400679Y803649D01*
X400750Y803564D01*
X400825Y803482D01*
X400902Y803402D01*
X400982Y803325D01*
X401064Y803250D01*
X401149Y803179D01*
X401236Y803110D01*
X401326Y803045D01*
X401418Y802982D01*
X401511Y802923D01*
X401607Y802867D01*
X401705Y802814D01*
X401804Y802765D01*
X401905Y802719D01*
X402008Y802677D01*
X402112Y802638D01*
X402217Y802602D01*
X402323Y802571D01*
X402431Y802542D01*
X402539Y802518D01*
X402648Y802497D01*
X402757Y802480D01*
X402868Y802467D01*
X402978Y802458D01*
X403089Y802452D01*
X403200Y802450D01*
X403311Y802452D01*
X403422Y802458D01*
X403532Y802467D01*
X403643Y802480D01*
X403752Y802497D01*
X403861Y802518D01*
X403969Y802542D01*
X404077Y802571D01*
X404183Y802602D01*
X404288Y802638D01*
X404392Y802677D01*
X404495Y802719D01*
X404596Y802765D01*
X404695Y802814D01*
X404793Y802867D01*
X404889Y802923D01*
X404982Y802982D01*
X405074Y803045D01*
X405164Y803110D01*
X405251Y803179D01*
X405336Y803250D01*
X405418Y803325D01*
X405498Y803402D01*
X405575Y803482D01*
X405650Y803564D01*
X405721Y803649D01*
X405790Y803736D01*
X405855Y803826D01*
X405918Y803918D01*
X405977Y804011D01*
X406033Y804107D01*
X406086Y804205D01*
X406135Y804304D01*
X406181Y804405D01*
X406223Y804508D01*
X406262Y804612D01*
X406298Y804717D01*
X406329Y804823D01*
X406358Y804931D01*
X406382Y805039D01*
X406403Y805148D01*
X406420Y805257D01*
X406433Y805368D01*
X406442Y805478D01*
X406448Y805589D01*
X406450Y805700D01*
X320050Y805700D02*
X320050Y816700D01*
X320048Y816811D01*
X320042Y816922D01*
X320033Y817032D01*
X320020Y817143D01*
X320003Y817252D01*
X319982Y817361D01*
X319958Y817469D01*
X319929Y817577D01*
X319898Y817683D01*
X319862Y817788D01*
X319823Y817892D01*
X319781Y817995D01*
X319735Y818096D01*
X319686Y818195D01*
X319633Y818293D01*
X319577Y818389D01*
X319518Y818482D01*
X319455Y818574D01*
X319390Y818664D01*
X319321Y818751D01*
X319250Y818836D01*
X319175Y818918D01*
X319098Y818998D01*
X319018Y819075D01*
X318936Y819150D01*
X318851Y819221D01*
X318764Y819290D01*
X318674Y819355D01*
X318582Y819418D01*
X318489Y819477D01*
X318393Y819533D01*
X318295Y819586D01*
X318196Y819635D01*
X318095Y819681D01*
X317992Y819723D01*
X317888Y819762D01*
X317783Y819798D01*
X317677Y819829D01*
X317569Y819858D01*
X317461Y819882D01*
X317352Y819903D01*
X317243Y819920D01*
X317132Y819933D01*
X317022Y819942D01*
X316911Y819948D01*
X316800Y819950D01*
X316689Y819948D01*
X316578Y819942D01*
X316468Y819933D01*
X316357Y819920D01*
X316248Y819903D01*
X316139Y819882D01*
X316031Y819858D01*
X315923Y819829D01*
X315817Y819798D01*
X315712Y819762D01*
X315608Y819723D01*
X315505Y819681D01*
X315404Y819635D01*
X315305Y819586D01*
X315207Y819533D01*
X315111Y819477D01*
X315018Y819418D01*
X314926Y819355D01*
X314836Y819290D01*
X314749Y819221D01*
X314664Y819150D01*
X314582Y819075D01*
X314502Y818998D01*
X314425Y818918D01*
X314350Y818836D01*
X314279Y818751D01*
X314210Y818664D01*
X314145Y818574D01*
X314082Y818482D01*
X314023Y818389D01*
X313967Y818293D01*
X313914Y818195D01*
X313865Y818096D01*
X313819Y817995D01*
X313777Y817892D01*
X313738Y817788D01*
X313702Y817683D01*
X313671Y817577D01*
X313642Y817469D01*
X313618Y817361D01*
X313597Y817252D01*
X313580Y817143D01*
X313567Y817032D01*
X313558Y816922D01*
X313552Y816811D01*
X313550Y816700D01*
X313550Y805700D01*
X313552Y805589D01*
X313558Y805478D01*
X313567Y805368D01*
X313580Y805257D01*
X313597Y805148D01*
X313618Y805039D01*
X313642Y804931D01*
X313671Y804823D01*
X313702Y804717D01*
X313738Y804612D01*
X313777Y804508D01*
X313819Y804405D01*
X313865Y804304D01*
X313914Y804205D01*
X313967Y804107D01*
X314023Y804011D01*
X314082Y803918D01*
X314145Y803826D01*
X314210Y803736D01*
X314279Y803649D01*
X314350Y803564D01*
X314425Y803482D01*
X314502Y803402D01*
X314582Y803325D01*
X314664Y803250D01*
X314749Y803179D01*
X314836Y803110D01*
X314926Y803045D01*
X315018Y802982D01*
X315111Y802923D01*
X315207Y802867D01*
X315305Y802814D01*
X315404Y802765D01*
X315505Y802719D01*
X315608Y802677D01*
X315712Y802638D01*
X315817Y802602D01*
X315923Y802571D01*
X316031Y802542D01*
X316139Y802518D01*
X316248Y802497D01*
X316357Y802480D01*
X316468Y802467D01*
X316578Y802458D01*
X316689Y802452D01*
X316800Y802450D01*
X316911Y802452D01*
X317022Y802458D01*
X317132Y802467D01*
X317243Y802480D01*
X317352Y802497D01*
X317461Y802518D01*
X317569Y802542D01*
X317677Y802571D01*
X317783Y802602D01*
X317888Y802638D01*
X317992Y802677D01*
X318095Y802719D01*
X318196Y802765D01*
X318295Y802814D01*
X318393Y802867D01*
X318489Y802923D01*
X318582Y802982D01*
X318674Y803045D01*
X318764Y803110D01*
X318851Y803179D01*
X318936Y803250D01*
X319018Y803325D01*
X319098Y803402D01*
X319175Y803482D01*
X319250Y803564D01*
X319321Y803649D01*
X319390Y803736D01*
X319455Y803826D01*
X319518Y803918D01*
X319577Y804011D01*
X319633Y804107D01*
X319686Y804205D01*
X319735Y804304D01*
X319781Y804405D01*
X319823Y804508D01*
X319862Y804612D01*
X319898Y804717D01*
X319929Y804823D01*
X319958Y804931D01*
X319982Y805039D01*
X320003Y805148D01*
X320020Y805257D01*
X320033Y805368D01*
X320042Y805478D01*
X320048Y805589D01*
X320050Y805700D01*
X406450Y850000D02*
X406450Y856000D01*
X406448Y856111D01*
X406442Y856222D01*
X406433Y856332D01*
X406420Y856443D01*
X406403Y856552D01*
X406382Y856661D01*
X406358Y856769D01*
X406329Y856877D01*
X406298Y856983D01*
X406262Y857088D01*
X406223Y857192D01*
X406181Y857295D01*
X406135Y857396D01*
X406086Y857495D01*
X406033Y857593D01*
X405977Y857689D01*
X405918Y857782D01*
X405855Y857874D01*
X405790Y857964D01*
X405721Y858051D01*
X405650Y858136D01*
X405575Y858218D01*
X405498Y858298D01*
X405418Y858375D01*
X405336Y858450D01*
X405251Y858521D01*
X405164Y858590D01*
X405074Y858655D01*
X404982Y858718D01*
X404889Y858777D01*
X404793Y858833D01*
X404695Y858886D01*
X404596Y858935D01*
X404495Y858981D01*
X404392Y859023D01*
X404288Y859062D01*
X404183Y859098D01*
X404077Y859129D01*
X403969Y859158D01*
X403861Y859182D01*
X403752Y859203D01*
X403643Y859220D01*
X403532Y859233D01*
X403422Y859242D01*
X403311Y859248D01*
X403200Y859250D01*
X403089Y859248D01*
X402978Y859242D01*
X402868Y859233D01*
X402757Y859220D01*
X402648Y859203D01*
X402539Y859182D01*
X402431Y859158D01*
X402323Y859129D01*
X402217Y859098D01*
X402112Y859062D01*
X402008Y859023D01*
X401905Y858981D01*
X401804Y858935D01*
X401705Y858886D01*
X401607Y858833D01*
X401511Y858777D01*
X401418Y858718D01*
X401326Y858655D01*
X401236Y858590D01*
X401149Y858521D01*
X401064Y858450D01*
X400982Y858375D01*
X400902Y858298D01*
X400825Y858218D01*
X400750Y858136D01*
X400679Y858051D01*
X400610Y857964D01*
X400545Y857874D01*
X400482Y857782D01*
X400423Y857689D01*
X400367Y857593D01*
X400314Y857495D01*
X400265Y857396D01*
X400219Y857295D01*
X400177Y857192D01*
X400138Y857088D01*
X400102Y856983D01*
X400071Y856877D01*
X400042Y856769D01*
X400018Y856661D01*
X399997Y856552D01*
X399980Y856443D01*
X399967Y856332D01*
X399958Y856222D01*
X399952Y856111D01*
X399950Y856000D01*
X399950Y850000D01*
X399952Y849889D01*
X399958Y849778D01*
X399967Y849668D01*
X399980Y849557D01*
X399997Y849448D01*
X400018Y849339D01*
X400042Y849231D01*
X400071Y849123D01*
X400102Y849017D01*
X400138Y848912D01*
X400177Y848808D01*
X400219Y848705D01*
X400265Y848604D01*
X400314Y848505D01*
X400367Y848407D01*
X400423Y848311D01*
X400482Y848218D01*
X400545Y848126D01*
X400610Y848036D01*
X400679Y847949D01*
X400750Y847864D01*
X400825Y847782D01*
X400902Y847702D01*
X400982Y847625D01*
X401064Y847550D01*
X401149Y847479D01*
X401236Y847410D01*
X401326Y847345D01*
X401418Y847282D01*
X401511Y847223D01*
X401607Y847167D01*
X401705Y847114D01*
X401804Y847065D01*
X401905Y847019D01*
X402008Y846977D01*
X402112Y846938D01*
X402217Y846902D01*
X402323Y846871D01*
X402431Y846842D01*
X402539Y846818D01*
X402648Y846797D01*
X402757Y846780D01*
X402868Y846767D01*
X402978Y846758D01*
X403089Y846752D01*
X403200Y846750D01*
X403311Y846752D01*
X403422Y846758D01*
X403532Y846767D01*
X403643Y846780D01*
X403752Y846797D01*
X403861Y846818D01*
X403969Y846842D01*
X404077Y846871D01*
X404183Y846902D01*
X404288Y846938D01*
X404392Y846977D01*
X404495Y847019D01*
X404596Y847065D01*
X404695Y847114D01*
X404793Y847167D01*
X404889Y847223D01*
X404982Y847282D01*
X405074Y847345D01*
X405164Y847410D01*
X405251Y847479D01*
X405336Y847550D01*
X405418Y847625D01*
X405498Y847702D01*
X405575Y847782D01*
X405650Y847864D01*
X405721Y847949D01*
X405790Y848036D01*
X405855Y848126D01*
X405918Y848218D01*
X405977Y848311D01*
X406033Y848407D01*
X406086Y848505D01*
X406135Y848604D01*
X406181Y848705D01*
X406223Y848808D01*
X406262Y848912D01*
X406298Y849017D01*
X406329Y849123D01*
X406358Y849231D01*
X406382Y849339D01*
X406403Y849448D01*
X406420Y849557D01*
X406433Y849668D01*
X406442Y849778D01*
X406448Y849889D01*
X406450Y850000D01*
X320050Y850000D02*
X320050Y856000D01*
X320048Y856111D01*
X320042Y856222D01*
X320033Y856332D01*
X320020Y856443D01*
X320003Y856552D01*
X319982Y856661D01*
X319958Y856769D01*
X319929Y856877D01*
X319898Y856983D01*
X319862Y857088D01*
X319823Y857192D01*
X319781Y857295D01*
X319735Y857396D01*
X319686Y857495D01*
X319633Y857593D01*
X319577Y857689D01*
X319518Y857782D01*
X319455Y857874D01*
X319390Y857964D01*
X319321Y858051D01*
X319250Y858136D01*
X319175Y858218D01*
X319098Y858298D01*
X319018Y858375D01*
X318936Y858450D01*
X318851Y858521D01*
X318764Y858590D01*
X318674Y858655D01*
X318582Y858718D01*
X318489Y858777D01*
X318393Y858833D01*
X318295Y858886D01*
X318196Y858935D01*
X318095Y858981D01*
X317992Y859023D01*
X317888Y859062D01*
X317783Y859098D01*
X317677Y859129D01*
X317569Y859158D01*
X317461Y859182D01*
X317352Y859203D01*
X317243Y859220D01*
X317132Y859233D01*
X317022Y859242D01*
X316911Y859248D01*
X316800Y859250D01*
X316689Y859248D01*
X316578Y859242D01*
X316468Y859233D01*
X316357Y859220D01*
X316248Y859203D01*
X316139Y859182D01*
X316031Y859158D01*
X315923Y859129D01*
X315817Y859098D01*
X315712Y859062D01*
X315608Y859023D01*
X315505Y858981D01*
X315404Y858935D01*
X315305Y858886D01*
X315207Y858833D01*
X315111Y858777D01*
X315018Y858718D01*
X314926Y858655D01*
X314836Y858590D01*
X314749Y858521D01*
X314664Y858450D01*
X314582Y858375D01*
X314502Y858298D01*
X314425Y858218D01*
X314350Y858136D01*
X314279Y858051D01*
X314210Y857964D01*
X314145Y857874D01*
X314082Y857782D01*
X314023Y857689D01*
X313967Y857593D01*
X313914Y857495D01*
X313865Y857396D01*
X313819Y857295D01*
X313777Y857192D01*
X313738Y857088D01*
X313702Y856983D01*
X313671Y856877D01*
X313642Y856769D01*
X313618Y856661D01*
X313597Y856552D01*
X313580Y856443D01*
X313567Y856332D01*
X313558Y856222D01*
X313552Y856111D01*
X313550Y856000D01*
X313550Y850000D01*
X313552Y849889D01*
X313558Y849778D01*
X313567Y849668D01*
X313580Y849557D01*
X313597Y849448D01*
X313618Y849339D01*
X313642Y849231D01*
X313671Y849123D01*
X313702Y849017D01*
X313738Y848912D01*
X313777Y848808D01*
X313819Y848705D01*
X313865Y848604D01*
X313914Y848505D01*
X313967Y848407D01*
X314023Y848311D01*
X314082Y848218D01*
X314145Y848126D01*
X314210Y848036D01*
X314279Y847949D01*
X314350Y847864D01*
X314425Y847782D01*
X314502Y847702D01*
X314582Y847625D01*
X314664Y847550D01*
X314749Y847479D01*
X314836Y847410D01*
X314926Y847345D01*
X315018Y847282D01*
X315111Y847223D01*
X315207Y847167D01*
X315305Y847114D01*
X315404Y847065D01*
X315505Y847019D01*
X315608Y846977D01*
X315712Y846938D01*
X315817Y846902D01*
X315923Y846871D01*
X316031Y846842D01*
X316139Y846818D01*
X316248Y846797D01*
X316357Y846780D01*
X316468Y846767D01*
X316578Y846758D01*
X316689Y846752D01*
X316800Y846750D01*
X316911Y846752D01*
X317022Y846758D01*
X317132Y846767D01*
X317243Y846780D01*
X317352Y846797D01*
X317461Y846818D01*
X317569Y846842D01*
X317677Y846871D01*
X317783Y846902D01*
X317888Y846938D01*
X317992Y846977D01*
X318095Y847019D01*
X318196Y847065D01*
X318295Y847114D01*
X318393Y847167D01*
X318489Y847223D01*
X318582Y847282D01*
X318674Y847345D01*
X318764Y847410D01*
X318851Y847479D01*
X318936Y847550D01*
X319018Y847625D01*
X319098Y847702D01*
X319175Y847782D01*
X319250Y847864D01*
X319321Y847949D01*
X319390Y848036D01*
X319455Y848126D01*
X319518Y848218D01*
X319577Y848311D01*
X319633Y848407D01*
X319686Y848505D01*
X319735Y848604D01*
X319781Y848705D01*
X319823Y848808D01*
X319862Y848912D01*
X319898Y849017D01*
X319929Y849123D01*
X319958Y849231D01*
X319982Y849339D01*
X320003Y849448D01*
X320020Y849557D01*
X320033Y849668D01*
X320042Y849778D01*
X320048Y849889D01*
X320050Y850000D01*
X385400Y816500D02*
X385402Y816618D01*
X385408Y816736D01*
X385418Y816854D01*
X385432Y816971D01*
X385450Y817088D01*
X385472Y817205D01*
X385497Y817320D01*
X385527Y817434D01*
X385561Y817548D01*
X385598Y817660D01*
X385639Y817771D01*
X385684Y817880D01*
X385732Y817988D01*
X385784Y818094D01*
X385840Y818199D01*
X385899Y818301D01*
X385961Y818401D01*
X386027Y818499D01*
X386096Y818595D01*
X386169Y818689D01*
X386244Y818780D01*
X386323Y818868D01*
X386404Y818954D01*
X386489Y819037D01*
X386576Y819117D01*
X386665Y819194D01*
X386758Y819268D01*
X386852Y819338D01*
X386949Y819406D01*
X387049Y819470D01*
X387150Y819531D01*
X387253Y819588D01*
X387359Y819642D01*
X387466Y819693D01*
X387574Y819739D01*
X387684Y819782D01*
X387796Y819821D01*
X387909Y819857D01*
X388023Y819888D01*
X388138Y819916D01*
X388253Y819940D01*
X388370Y819960D01*
X388487Y819976D01*
X388605Y819988D01*
X388723Y819996D01*
X388841Y820000D01*
X388959Y820000D01*
X389077Y819996D01*
X389195Y819988D01*
X389313Y819976D01*
X389430Y819960D01*
X389547Y819940D01*
X389662Y819916D01*
X389777Y819888D01*
X389891Y819857D01*
X390004Y819821D01*
X390116Y819782D01*
X390226Y819739D01*
X390334Y819693D01*
X390441Y819642D01*
X390547Y819588D01*
X390650Y819531D01*
X390751Y819470D01*
X390851Y819406D01*
X390948Y819338D01*
X391042Y819268D01*
X391135Y819194D01*
X391224Y819117D01*
X391311Y819037D01*
X391396Y818954D01*
X391477Y818868D01*
X391556Y818780D01*
X391631Y818689D01*
X391704Y818595D01*
X391773Y818499D01*
X391839Y818401D01*
X391901Y818301D01*
X391960Y818199D01*
X392016Y818094D01*
X392068Y817988D01*
X392116Y817880D01*
X392161Y817771D01*
X392202Y817660D01*
X392239Y817548D01*
X392273Y817434D01*
X392303Y817320D01*
X392328Y817205D01*
X392350Y817088D01*
X392368Y816971D01*
X392382Y816854D01*
X392392Y816736D01*
X392398Y816618D01*
X392400Y816500D01*
X392398Y816382D01*
X392392Y816264D01*
X392382Y816146D01*
X392368Y816029D01*
X392350Y815912D01*
X392328Y815795D01*
X392303Y815680D01*
X392273Y815566D01*
X392239Y815452D01*
X392202Y815340D01*
X392161Y815229D01*
X392116Y815120D01*
X392068Y815012D01*
X392016Y814906D01*
X391960Y814801D01*
X391901Y814699D01*
X391839Y814599D01*
X391773Y814501D01*
X391704Y814405D01*
X391631Y814311D01*
X391556Y814220D01*
X391477Y814132D01*
X391396Y814046D01*
X391311Y813963D01*
X391224Y813883D01*
X391135Y813806D01*
X391042Y813732D01*
X390948Y813662D01*
X390851Y813594D01*
X390751Y813530D01*
X390650Y813469D01*
X390547Y813412D01*
X390441Y813358D01*
X390334Y813307D01*
X390226Y813261D01*
X390116Y813218D01*
X390004Y813179D01*
X389891Y813143D01*
X389777Y813112D01*
X389662Y813084D01*
X389547Y813060D01*
X389430Y813040D01*
X389313Y813024D01*
X389195Y813012D01*
X389077Y813004D01*
X388959Y813000D01*
X388841Y813000D01*
X388723Y813004D01*
X388605Y813012D01*
X388487Y813024D01*
X388370Y813040D01*
X388253Y813060D01*
X388138Y813084D01*
X388023Y813112D01*
X387909Y813143D01*
X387796Y813179D01*
X387684Y813218D01*
X387574Y813261D01*
X387466Y813307D01*
X387359Y813358D01*
X387253Y813412D01*
X387150Y813469D01*
X387049Y813530D01*
X386949Y813594D01*
X386852Y813662D01*
X386758Y813732D01*
X386665Y813806D01*
X386576Y813883D01*
X386489Y813963D01*
X386404Y814046D01*
X386323Y814132D01*
X386244Y814220D01*
X386169Y814311D01*
X386096Y814405D01*
X386027Y814501D01*
X385961Y814599D01*
X385899Y814699D01*
X385840Y814801D01*
X385784Y814906D01*
X385732Y815012D01*
X385684Y815120D01*
X385639Y815229D01*
X385598Y815340D01*
X385561Y815452D01*
X385527Y815566D01*
X385497Y815680D01*
X385472Y815795D01*
X385450Y815912D01*
X385432Y816029D01*
X385418Y816146D01*
X385408Y816264D01*
X385402Y816382D01*
X385400Y816500D01*
X327600Y816500D02*
X327602Y816618D01*
X327608Y816736D01*
X327618Y816854D01*
X327632Y816971D01*
X327650Y817088D01*
X327672Y817205D01*
X327697Y817320D01*
X327727Y817434D01*
X327761Y817548D01*
X327798Y817660D01*
X327839Y817771D01*
X327884Y817880D01*
X327932Y817988D01*
X327984Y818094D01*
X328040Y818199D01*
X328099Y818301D01*
X328161Y818401D01*
X328227Y818499D01*
X328296Y818595D01*
X328369Y818689D01*
X328444Y818780D01*
X328523Y818868D01*
X328604Y818954D01*
X328689Y819037D01*
X328776Y819117D01*
X328865Y819194D01*
X328958Y819268D01*
X329052Y819338D01*
X329149Y819406D01*
X329249Y819470D01*
X329350Y819531D01*
X329453Y819588D01*
X329559Y819642D01*
X329666Y819693D01*
X329774Y819739D01*
X329884Y819782D01*
X329996Y819821D01*
X330109Y819857D01*
X330223Y819888D01*
X330338Y819916D01*
X330453Y819940D01*
X330570Y819960D01*
X330687Y819976D01*
X330805Y819988D01*
X330923Y819996D01*
X331041Y820000D01*
X331159Y820000D01*
X331277Y819996D01*
X331395Y819988D01*
X331513Y819976D01*
X331630Y819960D01*
X331747Y819940D01*
X331862Y819916D01*
X331977Y819888D01*
X332091Y819857D01*
X332204Y819821D01*
X332316Y819782D01*
X332426Y819739D01*
X332534Y819693D01*
X332641Y819642D01*
X332747Y819588D01*
X332850Y819531D01*
X332951Y819470D01*
X333051Y819406D01*
X333148Y819338D01*
X333242Y819268D01*
X333335Y819194D01*
X333424Y819117D01*
X333511Y819037D01*
X333596Y818954D01*
X333677Y818868D01*
X333756Y818780D01*
X333831Y818689D01*
X333904Y818595D01*
X333973Y818499D01*
X334039Y818401D01*
X334101Y818301D01*
X334160Y818199D01*
X334216Y818094D01*
X334268Y817988D01*
X334316Y817880D01*
X334361Y817771D01*
X334402Y817660D01*
X334439Y817548D01*
X334473Y817434D01*
X334503Y817320D01*
X334528Y817205D01*
X334550Y817088D01*
X334568Y816971D01*
X334582Y816854D01*
X334592Y816736D01*
X334598Y816618D01*
X334600Y816500D01*
X334598Y816382D01*
X334592Y816264D01*
X334582Y816146D01*
X334568Y816029D01*
X334550Y815912D01*
X334528Y815795D01*
X334503Y815680D01*
X334473Y815566D01*
X334439Y815452D01*
X334402Y815340D01*
X334361Y815229D01*
X334316Y815120D01*
X334268Y815012D01*
X334216Y814906D01*
X334160Y814801D01*
X334101Y814699D01*
X334039Y814599D01*
X333973Y814501D01*
X333904Y814405D01*
X333831Y814311D01*
X333756Y814220D01*
X333677Y814132D01*
X333596Y814046D01*
X333511Y813963D01*
X333424Y813883D01*
X333335Y813806D01*
X333242Y813732D01*
X333148Y813662D01*
X333051Y813594D01*
X332951Y813530D01*
X332850Y813469D01*
X332747Y813412D01*
X332641Y813358D01*
X332534Y813307D01*
X332426Y813261D01*
X332316Y813218D01*
X332204Y813179D01*
X332091Y813143D01*
X331977Y813112D01*
X331862Y813084D01*
X331747Y813060D01*
X331630Y813040D01*
X331513Y813024D01*
X331395Y813012D01*
X331277Y813004D01*
X331159Y813000D01*
X331041Y813000D01*
X330923Y813004D01*
X330805Y813012D01*
X330687Y813024D01*
X330570Y813040D01*
X330453Y813060D01*
X330338Y813084D01*
X330223Y813112D01*
X330109Y813143D01*
X329996Y813179D01*
X329884Y813218D01*
X329774Y813261D01*
X329666Y813307D01*
X329559Y813358D01*
X329453Y813412D01*
X329350Y813469D01*
X329249Y813530D01*
X329149Y813594D01*
X329052Y813662D01*
X328958Y813732D01*
X328865Y813806D01*
X328776Y813883D01*
X328689Y813963D01*
X328604Y814046D01*
X328523Y814132D01*
X328444Y814220D01*
X328369Y814311D01*
X328296Y814405D01*
X328227Y814501D01*
X328161Y814599D01*
X328099Y814699D01*
X328040Y814801D01*
X327984Y814906D01*
X327932Y815012D01*
X327884Y815120D01*
X327839Y815229D01*
X327798Y815340D01*
X327761Y815452D01*
X327727Y815566D01*
X327697Y815680D01*
X327672Y815795D01*
X327650Y815912D01*
X327632Y816029D01*
X327618Y816146D01*
X327608Y816264D01*
X327602Y816382D01*
X327600Y816500D01*
D11*
X0Y0D02*
X1500000Y0D01*
X1500000Y880000D01*
X0Y880000D01*
X0Y0D01*
X313550Y850000D02*
X313562Y849717D01*
X313599Y849436D01*
X313661Y849159D01*
X313746Y848888D01*
X313855Y848627D01*
X313985Y848375D01*
X314138Y848136D01*
X314310Y847911D01*
X314502Y847702D01*
X314711Y847510D01*
X314936Y847338D01*
X315175Y847185D01*
X315427Y847055D01*
X315688Y846946D01*
X315959Y846861D01*
X316236Y846799D01*
X316517Y846762D01*
X316800Y846750D01*
X317083Y846762D01*
X317364Y846799D01*
X317641Y846861D01*
X317912Y846946D01*
X318174Y847055D01*
X318425Y847185D01*
X318664Y847338D01*
X318889Y847510D01*
X319098Y847702D01*
X319290Y847911D01*
X319462Y848136D01*
X319615Y848375D01*
X319746Y848627D01*
X319854Y848888D01*
X319939Y849159D01*
X320001Y849436D01*
X320038Y849717D01*
X320050Y850000D01*
X320050Y856000D01*
X320038Y856283D01*
X320001Y856564D01*
X319939Y856841D01*
X319854Y857112D01*
X319746Y857374D01*
X319615Y857625D01*
X319462Y857864D01*
X319290Y858089D01*
X319098Y858298D01*
X318889Y858490D01*
X318664Y858662D01*
X318425Y858815D01*
X318174Y858946D01*
X317912Y859054D01*
X317641Y859139D01*
X317364Y859201D01*
X317083Y859238D01*
X316800Y859250D01*
X316517Y859238D01*
X316236Y859201D01*
X315959Y859139D01*
X315688Y859054D01*
X315427Y858946D01*
X315175Y858815D01*
X314936Y858662D01*
X314711Y858490D01*
X314502Y858298D01*
X314310Y858089D01*
X314138Y857864D01*
X313985Y857625D01*
X313855Y857374D01*
X313746Y857112D01*
X313661Y856841D01*
X313599Y856564D01*
X313562Y856283D01*
X313550Y856000D01*
X313550Y850000D01*
X399950Y850000D02*
X399962Y849717D01*
X399999Y849436D01*
X400061Y849159D01*
X400146Y848888D01*
X400255Y848627D01*
X400385Y848375D01*
X400538Y848136D01*
X400710Y847911D01*
X400902Y847702D01*
X401111Y847510D01*
X401336Y847338D01*
X401575Y847185D01*
X401827Y847055D01*
X402088Y846946D01*
X402359Y846861D01*
X402636Y846799D01*
X402917Y846762D01*
X403200Y846750D01*
X403483Y846762D01*
X403764Y846799D01*
X404041Y846861D01*
X404312Y846946D01*
X404574Y847055D01*
X404825Y847185D01*
X405064Y847338D01*
X405289Y847510D01*
X405498Y847702D01*
X405690Y847911D01*
X405862Y848136D01*
X406015Y848375D01*
X406146Y848627D01*
X406254Y848888D01*
X406339Y849159D01*
X406401Y849436D01*
X406438Y849717D01*
X406450Y850000D01*
X406450Y856000D01*
X406438Y856283D01*
X406401Y856564D01*
X406339Y856841D01*
X406254Y857112D01*
X406146Y857374D01*
X406015Y857625D01*
X405862Y857864D01*
X405690Y858089D01*
X405498Y858298D01*
X405289Y858490D01*
X405064Y858662D01*
X404825Y858815D01*
X404574Y858946D01*
X404312Y859054D01*
X404041Y859139D01*
X403764Y859201D01*
X403483Y859238D01*
X403200Y859250D01*
X402917Y859238D01*
X402636Y859201D01*
X402359Y859139D01*
X402088Y859054D01*
X401827Y858946D01*
X401575Y858815D01*
X401336Y858662D01*
X401111Y858490D01*
X400902Y858298D01*
X400710Y858089D01*
X400538Y857864D01*
X400385Y857625D01*
X400255Y857374D01*
X400146Y857112D01*
X400061Y856841D01*
X399999Y856564D01*
X399962Y856283D01*
X399950Y856000D01*
X399950Y850000D01*
X313550Y805700D02*
X313562Y805417D01*
X313599Y805136D01*
X313661Y804859D01*
X313746Y804588D01*
X313855Y804327D01*
X313985Y804075D01*
X314138Y803836D01*
X314310Y803611D01*
X314502Y803402D01*
X314711Y803210D01*
X314936Y803038D01*
X315175Y802885D01*
X315427Y802755D01*
X315688Y802646D01*
X315959Y802561D01*
X316236Y802499D01*
X316517Y802462D01*
X316800Y802450D01*
X317083Y802462D01*
X317364Y802499D01*
X317641Y802561D01*
X317912Y802646D01*
X318174Y802755D01*
X318425Y802885D01*
X318664Y803038D01*
X318889Y803210D01*
X319098Y803402D01*
X319290Y803611D01*
X319462Y803836D01*
X319615Y804075D01*
X319746Y804327D01*
X319854Y804588D01*
X319939Y804859D01*
X320001Y805136D01*
X320038Y805417D01*
X320050Y805700D01*
X320050Y816700D01*
X320038Y816983D01*
X320001Y817264D01*
X319939Y817541D01*
X319854Y817812D01*
X319746Y818074D01*
X319615Y818325D01*
X319462Y818564D01*
X319290Y818789D01*
X319098Y818998D01*
X318889Y819190D01*
X318664Y819362D01*
X318425Y819515D01*
X318174Y819646D01*
X317912Y819754D01*
X317641Y819839D01*
X317364Y819901D01*
X317083Y819938D01*
X316800Y819950D01*
X316517Y819938D01*
X316236Y819901D01*
X315959Y819839D01*
X315688Y819754D01*
X315427Y819646D01*
X315175Y819515D01*
X314936Y819362D01*
X314711Y819190D01*
X314502Y818998D01*
X314310Y818789D01*
X314138Y818564D01*
X313985Y818325D01*
X313855Y818074D01*
X313746Y817812D01*
X313661Y817541D01*
X313599Y817264D01*
X313562Y816983D01*
X313550Y816700D01*
X313550Y805700D01*
X399950Y805700D02*
X399962Y805417D01*
X399999Y805136D01*
X400061Y804859D01*
X400146Y804588D01*
X400255Y804327D01*
X400385Y804075D01*
X400538Y803836D01*
X400710Y803611D01*
X400902Y803402D01*
X401111Y803210D01*
X401336Y803038D01*
X401575Y802885D01*
X401827Y802755D01*
X402088Y802646D01*
X402359Y802561D01*
X402636Y802499D01*
X402917Y802462D01*
X403200Y802450D01*
X403483Y802462D01*
X403764Y802499D01*
X404041Y802561D01*
X404312Y802646D01*
X404574Y802755D01*
X404825Y802885D01*
X405064Y803038D01*
X405289Y803210D01*
X405498Y803402D01*
X405690Y803611D01*
X405862Y803836D01*
X406015Y804075D01*
X406146Y804327D01*
X406254Y804588D01*
X406339Y804859D01*
X406401Y805136D01*
X406438Y805417D01*
X406450Y805700D01*
X406450Y816700D01*
X406438Y816983D01*
X406401Y817264D01*
X406339Y817541D01*
X406254Y817812D01*
X406146Y818074D01*
X406015Y818325D01*
X405862Y818564D01*
X405690Y818789D01*
X405498Y818998D01*
X405289Y819190D01*
X405064Y819362D01*
X404825Y819515D01*
X404574Y819646D01*
X404312Y819754D01*
X404041Y819839D01*
X403764Y819901D01*
X403483Y819938D01*
X403200Y819950D01*
X402917Y819938D01*
X402636Y819901D01*
X402359Y819839D01*
X402088Y819754D01*
X401827Y819646D01*
X401575Y819515D01*
X401336Y819362D01*
X401111Y819190D01*
X400902Y818998D01*
X400710Y818789D01*
X400538Y818564D01*
X400385Y818325D01*
X400255Y818074D01*
X400146Y817812D01*
X400061Y817541D01*
X399999Y817264D01*
X399962Y816983D01*
X399950Y816700D01*
X399950Y805700D01*
X1371500Y151681D02*
X1371563Y151045D01*
X1371687Y150419D01*
X1371873Y149808D01*
X1372117Y149218D01*
X1372418Y148654D01*
X1372773Y148123D01*
X1373178Y147630D01*
X1373630Y147178D01*
X1374123Y146773D01*
X1374654Y146418D01*
X1375218Y146117D01*
X1375808Y145873D01*
X1376419Y145687D01*
X1377045Y145563D01*
X1377681Y145500D01*
X1378319Y145500D01*
X1378955Y145563D01*
X1379581Y145687D01*
X1380192Y145873D01*
X1380782Y146117D01*
X1381346Y146418D01*
X1381877Y146773D01*
X1382370Y147178D01*
X1382822Y147630D01*
X1383227Y148123D01*
X1383582Y148654D01*
X1383883Y149218D01*
X1384127Y149808D01*
X1384313Y150419D01*
X1384437Y151045D01*
X1384500Y151681D01*
X1384500Y152319D01*
X1384437Y152955D01*
X1384313Y153581D01*
X1384127Y154192D01*
X1383883Y154782D01*
X1383582Y155346D01*
X1383227Y155877D01*
X1382822Y156370D01*
X1382370Y156822D01*
X1381877Y157227D01*
X1381346Y157582D01*
X1380782Y157883D01*
X1380192Y158127D01*
X1379581Y158313D01*
X1378955Y158437D01*
X1378319Y158500D01*
X1377681Y158500D01*
X1377045Y158437D01*
X1376419Y158313D01*
X1375808Y158127D01*
X1375218Y157883D01*
X1374654Y157582D01*
X1374123Y157227D01*
X1373630Y156822D01*
X1373178Y156370D01*
X1372773Y155877D01*
X1372418Y155346D01*
X1372117Y154782D01*
X1371873Y154192D01*
X1371687Y153581D01*
X1371563Y152955D01*
X1371500Y152319D01*
X1371500Y151681D01*
X1373000Y226719D02*
X1373063Y226161D01*
X1373188Y225614D01*
X1373373Y225084D01*
X1373617Y224578D01*
X1373916Y224102D01*
X1374266Y223663D01*
X1374663Y223266D01*
X1375102Y222916D01*
X1375578Y222617D01*
X1376084Y222373D01*
X1376614Y222188D01*
X1377161Y222063D01*
X1377719Y222000D01*
X1378281Y222000D01*
X1378839Y222063D01*
X1379386Y222188D01*
X1379916Y222373D01*
X1380422Y222617D01*
X1380898Y222916D01*
X1381337Y223266D01*
X1381734Y223663D01*
X1382084Y224102D01*
X1382383Y224578D01*
X1382627Y225084D01*
X1382812Y225614D01*
X1382937Y226161D01*
X1383000Y226719D01*
X1383000Y227281D01*
X1382937Y227839D01*
X1382812Y228386D01*
X1382627Y228916D01*
X1382383Y229422D01*
X1382084Y229898D01*
X1381734Y230337D01*
X1381337Y230734D01*
X1380898Y231084D01*
X1380422Y231383D01*
X1379916Y231627D01*
X1379386Y231812D01*
X1378839Y231937D01*
X1378281Y232000D01*
X1377719Y232000D01*
X1377161Y231937D01*
X1376614Y231812D01*
X1376084Y231627D01*
X1375578Y231383D01*
X1375102Y231084D01*
X1374663Y230734D01*
X1374266Y230337D01*
X1373916Y229898D01*
X1373617Y229422D01*
X1373373Y228916D01*
X1373188Y228386D01*
X1373063Y227839D01*
X1373000Y227281D01*
X1373000Y226719D01*
X385400Y816729D02*
X385460Y817184D01*
X385579Y817627D01*
X385754Y818051D01*
X385984Y818449D01*
X386263Y818813D01*
X386587Y819137D01*
X386951Y819416D01*
X387349Y819646D01*
X387773Y819821D01*
X388216Y819940D01*
X388671Y820000D01*
X389129Y820000D01*
X389584Y819940D01*
X390027Y819821D01*
X390451Y819646D01*
X390849Y819416D01*
X391213Y819137D01*
X391537Y818813D01*
X391816Y818449D01*
X392046Y818051D01*
X392221Y817627D01*
X392340Y817184D01*
X392400Y816729D01*
X392400Y816271D01*
X392340Y815816D01*
X392221Y815373D01*
X392046Y814949D01*
X391816Y814551D01*
X391537Y814187D01*
X391213Y813863D01*
X390849Y813584D01*
X390451Y813354D01*
X390027Y813179D01*
X389584Y813060D01*
X389129Y813000D01*
X388671Y813000D01*
X388216Y813060D01*
X387773Y813179D01*
X387349Y813354D01*
X386951Y813584D01*
X386587Y813863D01*
X386263Y814187D01*
X385984Y814551D01*
X385754Y814949D01*
X385579Y815373D01*
X385460Y815816D01*
X385400Y816271D01*
X385400Y816729D01*
X327600Y816729D02*
X327660Y817184D01*
X327779Y817627D01*
X327954Y818051D01*
X328184Y818449D01*
X328463Y818813D01*
X328787Y819137D01*
X329151Y819416D01*
X329549Y819646D01*
X329973Y819821D01*
X330416Y819940D01*
X330871Y820000D01*
X331329Y820000D01*
X331784Y819940D01*
X332227Y819821D01*
X332651Y819646D01*
X333049Y819416D01*
X333413Y819137D01*
X333737Y818813D01*
X334016Y818449D01*
X334246Y818051D01*
X334421Y817627D01*
X334540Y817184D01*
X334600Y816729D01*
X334600Y816271D01*
X334540Y815816D01*
X334421Y815373D01*
X334246Y814949D01*
X334016Y814551D01*
X333737Y814187D01*
X333413Y813863D01*
X333049Y813584D01*
X332651Y813354D01*
X332227Y813179D01*
X331784Y813060D01*
X331329Y813000D01*
X330871Y813000D01*
X330416Y813060D01*
X329973Y813179D01*
X329549Y813354D01*
X329151Y813584D01*
X328787Y813863D01*
X328463Y814187D01*
X328184Y814551D01*
X327954Y814949D01*
X327779Y815373D01*
X327660Y815816D01*
X327600Y816271D01*
X327600Y816729D01*
M02*
