M48
;GenerationSoftware,Autodesk,EAGLE,9.6.2*%
;CreationDate,2021-05-05T23:39:28Z*%
FMAT,2
ICI,OFF
METRIC,TZ,000.000
T14C0.305
T13C0.350
T12C0.650
T11C0.700
T10C0.800
T9C0.813
T8C0.864
T7C1.000
T6C1.016
T5C1.050
T4C1.300
T3C1.321
T2C1.550
T1C3.200
%
G90
M71
T1
X75000Y5500
X112000Y82500
X5500Y72000
X5500Y27000
X144500Y39500
T2
X61803Y30777
X114871Y33196
X114223Y30803
X114858Y28406
X119000Y26000
X95397Y26635
X97154Y28384
X26223Y30803
X33419Y34931
X26871Y33196
X28629Y34944
X28607Y26648
X97167Y33173
X95419Y34931
X90629Y34944
X88871Y33196
X88223Y30803
X88858Y28406
X90607Y26648
X93000Y26000
X59397Y26635
X31000Y26000
X26858Y28406
X61167Y33173
X59419Y34931
X54629Y34944
X52871Y33196
X61154Y28384
X52223Y30803
X52858Y28406
X54607Y26648
X57000Y26000
X33397Y26635
X35154Y28384
X35803Y30777
X35167Y33173
X116629Y34944
X116607Y26648
X121397Y26635
X123154Y28384
X123803Y30777
X123167Y33173
X121419Y34931
X97803Y30777
T3
X16800Y64000
X84800Y85500
X120300Y5300
X102300Y77700
X45400Y18400
X106000Y17200
X109700Y17200
X130800Y10600
X112000Y77000
X108200Y86000
X112000Y73600
X9200Y64000
X43900Y8700
X32100Y64000
X23900Y5100
X113400Y17200
X87100Y83700
T4
X137800Y15200
T5
X18720Y5080
X6020Y5080
X18720Y20320
X11100Y20320
T6
X54000Y65500
X50650Y84300
X53190Y84300
X59080Y68040
X73273Y32500
X76067Y29200
X73273Y29200
X59080Y65500
X76067Y32500
X56540Y68040
X56540Y65500
X54000Y68040
X63350Y84300
X60810Y84300
X58270Y84300
X55730Y84300
T7
X137800Y22700
T8
X50650Y52691
X48110Y52691
X48110Y44309
X50650Y44309
X53190Y44309
X55730Y44309
X58270Y44309
X60810Y44309
X63350Y44309
X65890Y44309
X101890Y52691
X99350Y52691
X96810Y52691
X91730Y52691
X89190Y52691
X86650Y52691
X84110Y52691
X84110Y44309
X86650Y44309
X89190Y44309
X91730Y44309
X94270Y44309
X96810Y44309
X99350Y44309
X101890Y44309
X127890Y52691
X125350Y52691
X122810Y52691
X120270Y52691
X117730Y52691
X115190Y52691
X112650Y52691
X110110Y52691
X112650Y44309
X115190Y44309
X117730Y44309
X120270Y44309
X122810Y44309
X125350Y44309
X127890Y44309
X110110Y44309
X94270Y52691
X39890Y52691
X37350Y52691
X34810Y52691
X32270Y52691
X29730Y52691
X27190Y52691
X24650Y52691
X22110Y52691
X22110Y44309
X24650Y44309
X27190Y44309
X29730Y44309
X32270Y44309
X34810Y44309
X37350Y44309
X39890Y44309
X65890Y52691
X63350Y52691
X60810Y52691
X58270Y52691
X55730Y52691
X53190Y52691
T9
X22890Y77190
X20350Y77190
X17810Y77190
X7650Y77190
X15270Y77190
X12730Y77190
X10190Y77190
X12730Y84810
X10190Y84810
X15270Y84810
X17810Y84810
X5110Y84810
X7650Y84810
X20350Y84810
X22890Y84810
X23900Y9622
X23900Y13178
X5110Y77190
T10
X97470Y83500
X94930Y83500
T11
X38890Y81650
X33110Y81650
T12
X40320Y81120
X31680Y81120
X40320Y85300
X31680Y85300
T13
X59700Y73200
T14
X107900Y25800
X83700Y74900
X84400Y75600
X85000Y79500
X74100Y67400
X74100Y69200
X70600Y69400
X81900Y82500
X15700Y69500
X18100Y69500
X20500Y69500
X12100Y70700
X14500Y70700
X16900Y70700
X12100Y68300
X14500Y68300
X16900Y68300
X19300Y68300
X102400Y12900
X101800Y12200
X102400Y11500
X28050Y74875
X28955Y74875
X27597Y73900
X28502Y73900
X28955Y72925
X93700Y58000
X30900Y75600
X33000Y74200
X42800Y79700
X34300Y81400
X42100Y79700
X37300Y81400
X37600Y73600
X100100Y73800
X100100Y71700
X101200Y72700
X102300Y71700
X85100Y76300
X70500Y85700
X85800Y77000
X85800Y78100
X83400Y78100
X84100Y78800
X131700Y80100
X75100Y77500
X13300Y69500
X55600Y70300
X83800Y61300
X115200Y12100
X94300Y58505
X108900Y24800
X83000Y61300
X29407Y73900
X102300Y73800
X131700Y82650
X108400Y25300
X114100Y13300
X76300Y75400
X110000Y11700
X131500Y73700
X90100Y76500
X63700Y77200
X57200Y73000
X93100Y57495
X89200Y62100
X88200Y62100
X87200Y62100
X86200Y62100
X89200Y62900
X88200Y62900
X87200Y62900
X86200Y62900
X109000Y77200
X68300Y85700
X68300Y83600
X69400Y84600
X70500Y83600
X28050Y72925
M30