G04 EAGLE Gerber RS-274X export*
G75*
%MOMM*%
%FSLAX34Y34*%
%LPD*%
%INSoldermask Bottom*%
%IPPOS*%
%AMOC8*
5,1,8,0,0,1.08239X$1,22.5*%
G01*
%ADD10P,1.869504X8X112.500000*%
%ADD11C,1.727200*%
%ADD12R,2.427000X4.427000*%
%ADD13R,2.427000X3.787000*%
%ADD14C,1.427000*%
%ADD15C,1.127000*%
%ADD16C,2.006600*%
%ADD17C,2.057400*%
%ADD18C,1.346200*%
%ADD19C,1.527000*%
%ADD20C,0.685800*%
%ADD21C,2.452000*%
%ADD22C,2.133600*%
%ADD23C,1.651000*%
%ADD24C,1.177000*%
%ADD25C,0.827000*%
%ADD26P,2.474344X8X22.500000*%
%ADD27C,0.584200*%
%ADD28C,6.127000*%
%ADD29C,0.652000*%


D10*
X239000Y131780D03*
D11*
X239000Y96220D03*
D12*
X1378000Y273458D03*
D13*
X1378000Y109045D03*
D14*
X1378000Y152000D03*
D15*
X1378000Y227000D03*
D16*
X633500Y843000D03*
X608100Y843000D03*
X582700Y843000D03*
X557300Y843000D03*
X531900Y843000D03*
X506500Y843000D03*
X540000Y655000D03*
X540000Y680400D03*
X565400Y655000D03*
X565400Y680400D03*
X590800Y655000D03*
X590800Y680400D03*
D17*
X187200Y203200D03*
X187200Y50800D03*
X111000Y203200D03*
X60200Y50800D03*
D18*
X228900Y842004D02*
X228900Y854196D01*
X203500Y854196D02*
X203500Y842004D01*
X76500Y842004D02*
X76500Y854196D01*
X51100Y854196D02*
X51100Y842004D01*
X178100Y842004D02*
X178100Y854196D01*
X152700Y854196D02*
X152700Y842004D01*
X101900Y842004D02*
X101900Y854196D01*
X127300Y854196D02*
X127300Y842004D01*
X51100Y777996D02*
X51100Y765804D01*
X76500Y765804D02*
X76500Y777996D01*
X101900Y777996D02*
X101900Y765804D01*
X127300Y765804D02*
X127300Y777996D01*
X152700Y777996D02*
X152700Y765804D01*
X178100Y765804D02*
X178100Y777996D01*
X203500Y777996D02*
X203500Y765804D01*
X228900Y765804D02*
X228900Y777996D01*
D19*
X974700Y835000D03*
X949300Y835000D03*
D20*
X289550Y729250D03*
X280500Y729250D03*
X294070Y739000D03*
X285020Y739000D03*
X275970Y739000D03*
X289550Y748750D03*
X280500Y748750D03*
D21*
X310000Y260000D03*
X286069Y266481D03*
X268584Y284059D03*
X262231Y308025D03*
X268712Y331956D03*
X286290Y349441D03*
X334187Y349313D03*
X351672Y331735D03*
X358025Y307769D03*
X351544Y283838D03*
X333966Y266353D03*
D22*
X348100Y443090D03*
X322700Y443090D03*
X297300Y443090D03*
X271900Y443090D03*
X246500Y443090D03*
X221100Y443090D03*
X221100Y526910D03*
X271900Y526910D03*
X246500Y526910D03*
X297300Y526910D03*
X322700Y526910D03*
X348100Y526910D03*
X373500Y526910D03*
X398900Y526910D03*
X373500Y443090D03*
X398900Y443090D03*
D21*
X570000Y260000D03*
X546069Y266481D03*
X528584Y284059D03*
X522231Y308025D03*
X528712Y331956D03*
X546290Y349441D03*
X594187Y349313D03*
X611672Y331735D03*
X618025Y307769D03*
X611544Y283838D03*
X593966Y266353D03*
D22*
X608100Y443090D03*
X582700Y443090D03*
X557300Y443090D03*
X531900Y443090D03*
X506500Y443090D03*
X481100Y443090D03*
X481100Y526910D03*
X531900Y526910D03*
X506500Y526910D03*
X557300Y526910D03*
X582700Y526910D03*
X608100Y526910D03*
X633500Y526910D03*
X658900Y526910D03*
X633500Y443090D03*
X658900Y443090D03*
D21*
X930000Y260000D03*
X906069Y266481D03*
X888584Y284059D03*
X882231Y308025D03*
X888712Y331956D03*
X906290Y349441D03*
X954187Y349313D03*
X971672Y331735D03*
X978025Y307769D03*
X971544Y283838D03*
X953966Y266353D03*
D22*
X968100Y443090D03*
X942700Y443090D03*
X917300Y443090D03*
X891900Y443090D03*
X866500Y443090D03*
X841100Y443090D03*
X841100Y526910D03*
X891900Y526910D03*
X866500Y526910D03*
X917300Y526910D03*
X942700Y526910D03*
X968100Y526910D03*
X993500Y526910D03*
X1018900Y526910D03*
X993500Y443090D03*
X1018900Y443090D03*
D21*
X1190000Y260000D03*
X1166069Y266481D03*
X1148584Y284059D03*
X1142231Y308025D03*
X1148712Y331956D03*
X1166290Y349441D03*
X1214187Y349313D03*
X1231672Y331735D03*
X1238025Y307769D03*
X1231544Y283838D03*
X1213966Y266353D03*
D22*
X1228100Y443090D03*
X1202700Y443090D03*
X1177300Y443090D03*
X1151900Y443090D03*
X1126500Y443090D03*
X1101100Y443090D03*
X1101100Y526910D03*
X1151900Y526910D03*
X1126500Y526910D03*
X1177300Y526910D03*
X1202700Y526910D03*
X1228100Y526910D03*
X1253500Y526910D03*
X1278900Y526910D03*
X1253500Y443090D03*
X1278900Y443090D03*
D23*
X732730Y299620D02*
X732730Y284380D01*
X760670Y284380D02*
X760670Y299620D01*
D24*
X403200Y805950D02*
X403200Y816450D01*
X316800Y816450D02*
X316800Y805950D01*
X403200Y847750D02*
X403200Y858250D01*
X316800Y858250D02*
X316800Y847750D01*
D25*
X388900Y816500D03*
X331100Y816500D03*
D26*
X439000Y87000D03*
X871000Y837000D03*
X1120000Y736000D03*
X1082000Y860000D03*
X1120000Y770000D03*
X1308000Y106000D03*
X1097000Y172000D03*
X1134000Y172000D03*
X239000Y51000D03*
X321000Y640000D03*
X92000Y640000D03*
X168000Y640000D03*
X848000Y855000D03*
X1203000Y53000D03*
X1023000Y777000D03*
X454000Y184000D03*
X1060000Y172000D03*
D23*
X732730Y317380D02*
X732730Y332620D01*
X760670Y332620D02*
X760670Y317380D01*
D27*
X851000Y763000D03*
X858000Y770000D03*
X858000Y781000D03*
X834000Y781000D03*
X841000Y788000D03*
X1317000Y801000D03*
X751000Y775000D03*
X556000Y703000D03*
X838000Y613000D03*
X1152000Y121000D03*
X943000Y585048D03*
X1089000Y248000D03*
X830000Y613000D03*
X937000Y580000D03*
X1084000Y253000D03*
X1141000Y133000D03*
X763000Y754000D03*
X1100000Y117000D03*
X931000Y574952D03*
X1079000Y258000D03*
X837000Y749000D03*
X844000Y756000D03*
X850000Y795000D03*
X741000Y674000D03*
X741000Y692000D03*
X706000Y694000D03*
X819000Y825000D03*
D28*
X55000Y720000D03*
X55000Y270000D03*
X1445000Y395000D03*
X750000Y55000D03*
X1120000Y825000D03*
D27*
X133000Y695000D03*
X157000Y695000D03*
X181000Y695000D03*
X205000Y695000D03*
X121000Y707000D03*
X145000Y707000D03*
X169000Y707000D03*
X121000Y683000D03*
X145000Y683000D03*
X169000Y683000D03*
X193000Y683000D03*
X1024000Y129000D03*
X1018000Y122000D03*
X1024000Y115000D03*
X705000Y857000D03*
X705000Y836000D03*
X694000Y846000D03*
X683000Y836000D03*
X683000Y857000D03*
X1090000Y772000D03*
X862000Y629000D03*
X872000Y629000D03*
X882000Y629000D03*
X892000Y629000D03*
X862000Y621000D03*
X872000Y621000D03*
X882000Y621000D03*
X892000Y621000D03*
D29*
X597000Y732000D03*
D27*
X572000Y730000D03*
X637000Y772000D03*
X901000Y765000D03*
X1315000Y737000D03*
X1317000Y826500D03*
X1023000Y738000D03*
X1023000Y717000D03*
X1012000Y727000D03*
X1001000Y717000D03*
X1001000Y738000D03*
X376000Y736000D03*
X373000Y814000D03*
X421000Y797000D03*
X343000Y814000D03*
X428000Y797000D03*
X330000Y742000D03*
X309000Y756000D03*
M02*
